HIERARCHY
ROOT mixamorig:Hips
{
	OFFSET -0.000008 104.274872 1.554316
	CHANNELS 6 Xposition Yposition Zposition Xrotation Yrotation Zrotation
	JOINT mixamorig:Spine
	{
		OFFSET -0.000005 10.181595 0.131519
		CHANNELS 6 Xposition Yposition Zposition Xrotation Yrotation Zrotation
		JOINT mixamorig:Spine1
		{
			OFFSET -0.000000 9.893959 -1.470707
			CHANNELS 6 Xposition Yposition Zposition Xrotation Yrotation Zrotation
			JOINT mixamorig:Spine2
			{
				OFFSET -0.000000 9.220757 -1.370641
				CHANNELS 6 Xposition Yposition Zposition Xrotation Yrotation Zrotation
				JOINT mixamorig:Neck
				{
					OFFSET 0.000001 16.740417 -2.049036
					CHANNELS 6 Xposition Yposition Zposition Xrotation Yrotation Zrotation
					JOINT mixamorig:Head
					{
						OFFSET 0.000000 9.617874 1.685006
						CHANNELS 6 Xposition Yposition Zposition Xrotation Yrotation Zrotation
						JOINT mixamorig:HeadTop_End
						{
							OFFSET 0.000002 22.037354 7.501101
							CHANNELS 6 Xposition Yposition Zposition Xrotation Yrotation Zrotation
							End Site
							{
								OFFSET 0.000168 2310.654297 -282.823242
							}
						}
					}
				}
				JOINT mixamorig:RightShoulder
				{
					OFFSET -4.569970 11.014908 -2.160885
					CHANNELS 6 Xposition Yposition Zposition Xrotation Yrotation Zrotation
					JOINT mixamorig:RightArm
					{
						OFFSET -10.592851 -0.524811 -2.232101
						CHANNELS 6 Xposition Yposition Zposition Xrotation Yrotation Zrotation
						JOINT mixamorig:RightForeArm
						{
							OFFSET -27.841511 0.000031 -0.000004
							CHANNELS 6 Xposition Yposition Zposition Xrotation Yrotation Zrotation
							JOINT mixamorig:RightHand
							{
								OFFSET -28.328831 -0.000015 0.000015
								CHANNELS 6 Xposition Yposition Zposition Xrotation Yrotation Zrotation
								JOINT mixamorig:RightHandThumb1
								{
									OFFSET -2.464806 -1.573990 2.681852
									CHANNELS 6 Xposition Yposition Zposition Xrotation Yrotation Zrotation
									JOINT mixamorig:RightHandThumb2
									{
										OFFSET -3.215179 -1.872803 1.924282
										CHANNELS 6 Xposition Yposition Zposition Xrotation Yrotation Zrotation
										JOINT mixamorig:RightHandThumb3
										{
											OFFSET -2.654831 -1.527969 1.512609
											CHANNELS 6 Xposition Yposition Zposition Xrotation Yrotation Zrotation
											JOINT mixamorig:RightHandThumb4
											{
												OFFSET -2.018814 -1.152008 1.108052
												CHANNELS 6 Xposition Yposition Zposition Xrotation Yrotation Zrotation
												End Site
												{
													OFFSET -188.809540 -114.533607 132.431396
												}
											}
										}
									}
								}
								JOINT mixamorig:RightHandIndex1
								{
									OFFSET -9.108284 -0.517868 2.259835
									CHANNELS 6 Xposition Yposition Zposition Xrotation Yrotation Zrotation
									JOINT mixamorig:RightHandIndex2
									{
										OFFSET -3.699989 0.000000 0.001215
										CHANNELS 6 Xposition Yposition Zposition Xrotation Yrotation Zrotation
										JOINT mixamorig:RightHandIndex3
										{
											OFFSET -2.850006 0.000031 -0.000522
											CHANNELS 6 Xposition Yposition Zposition Xrotation Yrotation Zrotation
											JOINT mixamorig:RightHandIndex4
											{
												OFFSET -2.772186 -0.000015 -0.000020
												CHANNELS 6 Xposition Yposition Zposition Xrotation Yrotation Zrotation
												End Site
												{
													OFFSET -277.218445 0.000000 -0.050231
												}
											}
										}
									}
								}
								JOINT mixamorig:RightHandMiddle1
								{
									OFFSET -9.532516 -0.000031 -0.000023
									CHANNELS 6 Xposition Yposition Zposition Xrotation Yrotation Zrotation
									JOINT mixamorig:RightHandMiddle2
									{
										OFFSET -3.700005 -0.000015 0.003713
										CHANNELS 6 Xposition Yposition Zposition Xrotation Yrotation Zrotation
										JOINT mixamorig:RightHandMiddle3
										{
											OFFSET -2.949974 0.000015 -0.002054
											CHANNELS 6 Xposition Yposition Zposition Xrotation Yrotation Zrotation
											JOINT mixamorig:RightHandMiddle4
											{
												OFFSET -2.946640 0.000000 -0.000156
												CHANNELS 6 Xposition Yposition Zposition Xrotation Yrotation Zrotation
												End Site
												{
													OFFSET -294.664337 0.000000 -0.113670
												}
											}
										}
									}
								}
								JOINT mixamorig:RightHandRing1
								{
									OFFSET -9.103600 -0.043076 -1.865134
									CHANNELS 6 Xposition Yposition Zposition Xrotation Yrotation Zrotation
									JOINT mixamorig:RightHandRing2
									{
										OFFSET -3.379288 0.000000 -0.001055
										CHANNELS 6 Xposition Yposition Zposition Xrotation Yrotation Zrotation
										JOINT mixamorig:RightHandRing3
										{
											OFFSET -2.889687 -0.000015 0.000379
											CHANNELS 6 Xposition Yposition Zposition Xrotation Yrotation Zrotation
											JOINT mixamorig:RightHandRing4
											{
												OFFSET -2.638809 -0.000015 0.000941
												CHANNELS 6 Xposition Yposition Zposition Xrotation Yrotation Zrotation
												End Site
												{
													OFFSET -263.880371 0.000000 0.516020
												}
											}
										}
									}
								}
								JOINT mixamorig:RightHandPinky1
								{
									OFFSET -8.076683 -0.486710 -3.806280
									CHANNELS 6 Xposition Yposition Zposition Xrotation Yrotation Zrotation
									JOINT mixamorig:RightHandPinky2
									{
										OFFSET -3.600014 -0.000015 -0.003747
										CHANNELS 6 Xposition Yposition Zposition Xrotation Yrotation Zrotation
										JOINT mixamorig:RightHandPinky3
										{
											OFFSET -2.099983 0.000000 -0.005739
											CHANNELS 6 Xposition Yposition Zposition Xrotation Yrotation Zrotation
											JOINT mixamorig:RightHandPinky4
											{
												OFFSET -2.115768 -0.000031 -0.003680
												CHANNELS 6 Xposition Yposition Zposition Xrotation Yrotation Zrotation
												End Site
												{
													OFFSET -211.577087 0.000000 -0.350686
												}
											}
										}
									}
								}
							}
						}
					}
				}
				JOINT mixamorig:LeftShoulder
				{
					OFFSET 4.570447 11.014725 -2.160855
					CHANNELS 6 Xposition Yposition Zposition Xrotation Yrotation Zrotation
					JOINT mixamorig:LeftArm
					{
						OFFSET 10.592371 -0.524597 -2.232119
						CHANNELS 6 Xposition Yposition Zposition Xrotation Yrotation Zrotation
						JOINT mixamorig:LeftForeArm
						{
							OFFSET 27.841532 -0.000031 0.000026
							CHANNELS 6 Xposition Yposition Zposition Xrotation Yrotation Zrotation
							JOINT mixamorig:LeftHand
							{
								OFFSET 28.328846 -0.000061 0.000022
								CHANNELS 6 Xposition Yposition Zposition Xrotation Yrotation Zrotation
								JOINT mixamorig:LeftHandThumb1
								{
									OFFSET 2.466141 -1.576172 2.681732
									CHANNELS 6 Xposition Yposition Zposition Xrotation Yrotation Zrotation
									JOINT mixamorig:LeftHandThumb2
									{
										OFFSET 3.217812 -1.872070 1.916482
										CHANNELS 6 Xposition Yposition Zposition Xrotation Yrotation Zrotation
										JOINT mixamorig:LeftHandThumb3
										{
											OFFSET 2.656029 -1.528778 1.514513
											CHANNELS 6 Xposition Yposition Zposition Xrotation Yrotation Zrotation
											JOINT mixamorig:LeftHandThumb4
											{
												OFFSET 2.020889 -1.154053 1.115139
												CHANNELS 6 Xposition Yposition Zposition Xrotation Yrotation Zrotation
												End Site
												{
													OFFSET 190.885437 -115.081749 130.048782
												}
											}
										}
									}
								}
								JOINT mixamorig:LeftHandIndex1
								{
									OFFSET 9.109314 -0.518021 2.259871
									CHANNELS 6 Xposition Yposition Zposition Xrotation Yrotation Zrotation
									JOINT mixamorig:LeftHandIndex2
									{
										OFFSET 3.699989 0.000000 -0.000322
										CHANNELS 6 Xposition Yposition Zposition Xrotation Yrotation Zrotation
										JOINT mixamorig:LeftHandIndex3
										{
											OFFSET 2.850006 0.000000 0.000352
											CHANNELS 6 Xposition Yposition Zposition Xrotation Yrotation Zrotation
											JOINT mixamorig:LeftHandIndex4
											{
												OFFSET 2.774864 -0.000031 -0.000027
												CHANNELS 6 Xposition Yposition Zposition Xrotation Yrotation Zrotation
												End Site
												{
													OFFSET 277.486267 0.000000 -0.009857
												}
											}
										}
									}
								}
								JOINT mixamorig:LeftHandMiddle1
								{
									OFFSET 9.533394 0.000061 0.000044
									CHANNELS 6 Xposition Yposition Zposition Xrotation Yrotation Zrotation
									JOINT mixamorig:LeftHandMiddle2
									{
										OFFSET 3.699989 -0.000015 -0.000231
										CHANNELS 6 Xposition Yposition Zposition Xrotation Yrotation Zrotation
										JOINT mixamorig:LeftHandMiddle3
										{
											OFFSET 2.949997 -0.000015 -0.000059
											CHANNELS 6 Xposition Yposition Zposition Xrotation Yrotation Zrotation
											JOINT mixamorig:LeftHandMiddle4
											{
												OFFSET 2.952896 0.000031 0.000063
												CHANNELS 6 Xposition Yposition Zposition Xrotation Yrotation Zrotation
												End Site
												{
													OFFSET 295.289337 0.000000 0.022810
												}
											}
										}
									}
								}
								JOINT mixamorig:LeftHandRing1
								{
									OFFSET 9.104523 -0.042999 -1.865074
									CHANNELS 6 Xposition Yposition Zposition Xrotation Yrotation Zrotation
									JOINT mixamorig:LeftHandRing2
									{
										OFFSET 3.150009 -0.000031 0.000043
										CHANNELS 6 Xposition Yposition Zposition Xrotation Yrotation Zrotation
										JOINT mixamorig:LeftHandRing3
										{
											OFFSET 2.949982 -0.000015 0.000040
											CHANNELS 6 Xposition Yposition Zposition Xrotation Yrotation Zrotation
											JOINT mixamorig:LeftHandRing4
											{
												OFFSET 2.644348 0.000000 0.000057
												CHANNELS 6 Xposition Yposition Zposition Xrotation Yrotation Zrotation
												End Site
												{
													OFFSET 264.434631 0.000000 0.012105
												}
											}
										}
									}
								}
								JOINT mixamorig:LeftHandPinky1
								{
									OFFSET 8.077789 -0.486847 -3.806259
									CHANNELS 6 Xposition Yposition Zposition Xrotation Yrotation Zrotation
									JOINT mixamorig:LeftHandPinky2
									{
										OFFSET 3.599953 0.000031 0.014727
										CHANNELS 6 Xposition Yposition Zposition Xrotation Yrotation Zrotation
										JOINT mixamorig:LeftHandPinky3
										{
											OFFSET 2.100021 0.000015 0.007705
											CHANNELS 6 Xposition Yposition Zposition Xrotation Yrotation Zrotation
											JOINT mixamorig:LeftHandPinky4
											{
												OFFSET 2.125504 0.000031 0.007517
												CHANNELS 6 Xposition Yposition Zposition Xrotation Yrotation Zrotation
												End Site
												{
													OFFSET 212.550781 0.000000 0.625752
												}
											}
										}
									}
								}
							}
						}
					}
				}
			}
		}
	}
	JOINT mixamorig:RightUpLeg
	{
		OFFSET -8.207787 -6.751648 -1.599560
		CHANNELS 6 Xposition Yposition Zposition Xrotation Yrotation Zrotation
		JOINT mixamorig:RightLeg
		{
			OFFSET -0.000002 -44.370117 0.345942
			CHANNELS 6 Xposition Yposition Zposition Xrotation Yrotation Zrotation
			JOINT mixamorig:RightFoot
			{
				OFFSET 0.000003 -44.423679 -3.043532
				CHANNELS 6 Xposition Yposition Zposition Xrotation Yrotation Zrotation
				JOINT mixamorig:RightToeBase
				{
					OFFSET -0.000002 -8.728671 10.710558
					CHANNELS 6 Xposition Yposition Zposition Xrotation Yrotation Zrotation
					JOINT mixamorig:RightToe_End
					{
						OFFSET -0.000001 -0.000679 9.278119
						CHANNELS 6 Xposition Yposition Zposition Xrotation Yrotation Zrotation
						End Site
						{
							OFFSET 0.000000 -0.067690 927.812134
						}
					}
				}
			}
		}
	}
	JOINT mixamorig:LeftUpLeg
	{
		OFFSET 8.207793 -6.751686 -1.599556
		CHANNELS 6 Xposition Yposition Zposition Xrotation Yrotation Zrotation
		JOINT mixamorig:LeftLeg
		{
			OFFSET -0.000004 -44.370014 0.346954
			CHANNELS 6 Xposition Yposition Zposition Xrotation Yrotation Zrotation
			JOINT mixamorig:LeftFoot
			{
				OFFSET -0.000001 -44.423672 -3.044401
				CHANNELS 6 Xposition Yposition Zposition Xrotation Yrotation Zrotation
				JOINT mixamorig:LeftToeBase
				{
					OFFSET -0.000002 -8.728669 10.710558
					CHANNELS 6 Xposition Yposition Zposition Xrotation Yrotation Zrotation
					JOINT mixamorig:LeftToe_End
					{
						OFFSET -0.000003 -0.000679 9.278133
						CHANNELS 6 Xposition Yposition Zposition Xrotation Yrotation Zrotation
						End Site
						{
							OFFSET 0.000000 -0.068021 927.813477
						}
					}
				}
			}
		}
	}
}
MOTION
Frames: 3
Frame Time: 0.033333
0.000006 104.270477 1.554256 0.000010 0.000003 -0.000113 -0.000005 10.181587 0.131522 0.000001 -0.000003 0.000084 -0.000000 9.893967 -1.470711 0.000001 0.000000 -0.000000 -0.000000 9.220802 -1.370642 0.000000 -0.000000 -0.000000 0.000001 16.740433 -2.049030 0.000000 -0.000000 -0.000000 0.000000 9.617859 1.685014 0.000000 0.000000 0.000000 0.000002 22.037384 7.501101 0.000000 -0.000000 0.000000 -4.569968 11.014880 -2.160881 0.000008 0.000001 -0.000038 -10.592809 -0.524833 -2.231765 46.884304 64.994858 -30.881816 -27.841482 0.000017 0.000593 24.375931 104.645916 -31.251264 -28.328838 0.000020 0.000029 -0.000322 -0.000044 0.000008 -2.464848 -1.574144 2.682104 101.356305 -185.266723 160.341095 -3.215001 -1.873053 1.924649 237.870845 -28.436984 306.535611 -2.654558 -1.528193 1.513082 197.253281 -36.506378 263.415207 -2.018831 -1.151985 1.108064 -0.000002 0.000000 0.000004 -9.108195 -0.517886 2.260418 171.897393 15.672383 -125.862601 -3.699933 -0.000031 0.001793 164.869797 18.110547 -100.253161 -2.850055 0.000125 0.000013 158.658095 12.128394 -58.824512 -2.772175 -0.000016 -0.000015 0.000002 0.000000 -0.000001 -9.532361 -0.000079 0.000555 174.881256 11.566212 -133.732085 -3.699878 -0.000055 0.004293 173.447203 12.091369 -122.317596 -2.950018 0.000032 -0.001509 168.196878 8.644503 -72.281624 -2.946617 0.000010 -0.000153 -0.000001 -0.000003 -0.000003 -9.103343 -0.043038 -1.864545 179.389099 10.574839 -172.998187 -3.379049 -0.000095 -0.000485 177.264692 6.894056 -137.058032 -2.889724 0.000082 0.000930 171.395852 2.649032 -34.821694 -2.638821 0.000000 0.000943 -0.000000 -0.000001 -0.000001 -8.076409 -0.486612 -3.805695 181.465873 7.318404 -201.165655 -3.599996 -0.000006 -0.003185 178.214074 1.222652 -46.847482 -2.099848 0.000282 -0.005192 175.206824 -2.260465 52.466344 -2.115780 -0.000027 -0.003675 0.000000 0.000000 -0.000005 4.570446 11.014691 -2.160851 -0.000018 0.000010 -0.000021 10.592497 -0.524550 -2.232384 53.536734 -60.771540 32.955154 27.841774 -0.000053 -0.000109 35.038580 -101.704727 42.389814 28.328833 -0.000029 0.000025 0.000020 -0.000090 -0.000000 2.466184 -1.576068 2.681935 109.199944 184.725362 -161.979657 3.217854 -1.871934 1.916565 264.778430 23.017811 35.064999 2.656085 -1.528711 1.514618 247.165039 30.210664 49.129728 2.020880 -1.154065 1.115121 -0.000002 0.000007 0.000004 9.109056 -0.517889 2.259978 8.427204 -164.521102 56.896719 3.699769 0.000015 -0.000229 3.376575 -163.558633 23.137052 2.849869 -0.000009 0.000429 -0.581477 -166.327565 -4.857019 2.774893 -0.000035 -0.000023 -0.000002 -0.000001 -0.000002 9.533102 0.000201 0.000155 189.936018 -15.413229 -114.584032 3.699691 0.000145 -0.000119 8.627193 -165.043790 59.760446 2.949719 0.000138 0.000046 7.105894 -168.985382 65.567241 2.952852 -0.000016 0.000065 -0.000004 0.000000 -0.000001 9.104264 -0.042794 -1.864960 192.614012 -13.618768 -94.424947 3.149678 0.000358 0.000179 192.684923 -11.765424 274.339712 2.949730 0.000457 0.000162 191.830808 -6.479276 -417.300024 2.644308 0.000046 0.000050 0.000002 -0.000005 -0.000005 8.077559 -0.486577 -3.806125 197.989849 -13.104491 287.604977 3.599733 0.000389 0.014863 195.602998 -9.051052 299.057456 2.099909 0.000473 0.007826 194.798102 -2.988110 -385.024484 2.125493 -0.000015 0.007520 -0.000001 0.000004 0.000001 -8.207786 -6.751667 -1.599560 -0.077001 -0.000003 0.000080 -0.000002 -44.370110 0.345938 0.153719 -0.000000 -0.000000 0.000000 -44.423679 -3.043532 -0.076700 0.000000 -0.000002 -0.000006 -8.728667 10.710559 -0.000009 -0.000000 -0.000000 -0.000001 -0.000679 9.278123 0.000000 -0.000000 -0.000000 8.207792 -6.751710 -1.599556 -0.074518 -0.000003 0.000081 -0.000002 -44.370014 0.346960 0.148822 0.000002 0.000000 -0.000001 -44.423664 -3.044403 -0.074314 0.000000 -0.000002 -0.000004 -8.728671 10.710558 0.000007 -0.000000 -0.000000 0.000000 -0.000680 9.278137 -0.000000 0.000000 -0.000001 
0.000006 104.270477 1.554256 0.000010 0.000003 -0.000113 -0.000005 10.181587 0.131522 0.000001 -0.000003 0.000084 -0.000000 9.893967 -1.470711 0.000001 0.000000 -0.000000 -0.000000 9.220802 -1.370642 0.000000 -0.000000 -0.000000 0.000001 16.740433 -2.049030 0.000000 -0.000000 -0.000000 0.000000 9.617859 1.685014 0.000000 0.000000 0.000000 0.000002 22.037384 7.501101 0.000000 -0.000000 0.000000 -4.569968 11.014880 -2.160881 0.000008 0.000001 -0.000038 -10.592812 -0.524827 -2.231769 45.477988 64.518185 -29.634237 -27.841471 -0.000008 0.000601 17.674738 105.357997 -23.053289 -28.328833 0.000007 0.000034 -0.000320 -0.000043 0.000008 -2.464847 -1.574146 2.682154 88.804754 -186.179482 157.758819 -3.214994 -1.873031 1.924681 228.742830 -26.653307 301.300954 -2.654598 -1.528171 1.513142 193.440137 -28.078600 266.199028 -2.018827 -1.151999 1.108070 -0.000003 0.000002 0.000005 -9.108274 -0.517871 2.260403 165.897550 19.187497 -107.856938 -3.699950 -0.000032 0.001806 163.019595 23.504600 -108.569115 -2.850027 0.000055 0.000020 160.271946 18.089315 -84.941769 -2.772178 -0.000011 -0.000023 -0.000002 0.000000 -0.000000 -9.532456 -0.000052 0.000548 167.809839 15.970055 -106.351284 -3.699911 -0.000042 0.004300 170.595094 17.455488 -123.014330 -2.949973 -0.000007 -0.001491 169.964845 13.386173 -106.337125 -2.946620 0.000014 -0.000154 -0.000000 0.000001 -0.000002 -9.103541 -0.043103 -1.864557 170.286738 14.181813 -111.001099 -3.379193 -0.000066 -0.000480 171.494890 10.827545 -103.939005 -2.889710 -0.000030 0.000936 170.242902 6.588210 -68.538442 -2.638806 -0.000026 0.000936 0.000002 0.000000 0.000002 -8.076561 -0.486710 -3.805700 173.367195 10.763027 -115.311884 -3.600006 -0.000019 -0.003191 172.987532 4.560187 -60.170162 -2.100001 0.000068 -0.005180 172.635681 1.924683 -25.641683 -2.115773 -0.000040 -0.003678 0.000001 0.000002 -0.000005 4.570446 11.014691 -2.160851 -0.000018 0.000010 -0.000021 10.592495 -0.524537 -2.232381 54.694550 -59.731507 33.081123 27.841787 -0.000059 -0.000128 24.069114 -100.991689 28.995847 28.328821 -0.000015 0.000024 0.000021 -0.000090 0.000001 2.466181 -1.576076 2.681920 116.877705 195.656137 -165.023463 3.217839 -1.871908 1.916603 317.964021 -22.737027 12.406958 2.656032 -1.528723 1.514689 334.826938 -44.312024 15.565694 2.020871 -1.154084 1.115150 0.000001 0.000000 0.000008 9.109338 -0.518032 2.259872 15.785786 -37.811634 5.432151 3.700024 -0.000000 -0.000326 27.533077 -41.948198 10.739696 2.850052 0.000027 0.000316 33.822113 -33.877165 10.579919 2.774879 -0.000031 -0.000024 0.000008 0.000001 0.000000 9.533422 0.000035 0.000054 193.227923 -145.618882 -175.894132 3.700018 -0.000014 -0.000208 12.866929 -34.818949 4.048981 2.950025 -0.000012 -0.000063 14.028318 -26.700024 3.345743 2.952866 -0.000046 0.000063 -0.000000 -0.000001 -0.000000 9.104539 -0.043042 -1.865065 188.552522 -148.167130 -177.556382 3.150012 0.000008 0.000067 189.875065 -156.765136 182.035470 2.949991 -0.000008 0.000045 11.886486 -14.716723 -358.459229 2.644317 0.000046 0.000056 0.000000 -0.000004 0.000000 8.077803 -0.486874 -3.806228 361.440715 -26.612278 360.457114 3.599962 -0.000010 0.014728 364.884879 -12.671553 360.607241 2.100003 -0.000008 0.007701 363.992174 -5.351115 -359.780351 2.125503 -0.000001 0.007514 -0.000002 0.000000 0.000000 -8.207786 -6.751667 -1.599560 -0.077001 -0.000003 0.000080 -0.000002 -44.370110 0.345938 0.153719 -0.000000 -0.000000 0.000000 -44.423679 -3.043532 -0.076700 0.000000 -0.000002 -0.000006 -8.728667 10.710559 -0.000009 -0.000000 -0.000000 -0.000001 -0.000679 9.278123 0.000000 -0.000000 -0.000000 8.207792 -6.751710 -1.599556 -0.074518 -0.000003 0.000081 -0.000002 -44.370014 0.346960 0.148822 0.000002 0.000000 -0.000001 -44.423664 -3.044403 -0.074314 0.000000 -0.000002 -0.000004 -8.728671 10.710558 0.000007 -0.000000 -0.000000 0.000000 -0.000680 9.278137 -0.000000 0.000000 -0.000001 
0.000006 104.270477 1.554256 0.000010 0.000003 -0.000113 -0.000005 10.181587 0.131522 0.000001 -0.000003 0.000084 -0.000000 9.893967 -1.470711 0.000001 0.000000 -0.000000 -0.000000 9.220802 -1.370642 0.000000 -0.000000 -0.000000 0.000001 16.740433 -2.049030 0.000000 -0.000000 -0.000000 0.000000 9.617859 1.685014 0.000000 0.000000 0.000000 0.000002 22.037384 7.501101 0.000000 -0.000000 0.000000 -4.569968 11.014880 -2.160881 0.000008 0.000001 -0.000038 -10.592813 -0.524822 -2.231773 44.680751 63.443127 -28.506027 -27.841463 -0.000006 0.000599 8.420366 105.524251 -11.063740 -28.328835 0.000021 0.000030 -0.000324 -0.000044 0.000006 -2.464803 -1.574174 2.682163 85.640382 -177.924420 153.804140 -3.214907 -1.872996 1.924708 215.449329 -35.569440 284.200510 -2.654500 -1.528069 1.513140 167.475842 -31.448954 227.183348 -2.018838 -1.151988 1.108075 -0.000005 -0.000001 0.000004 -9.108273 -0.517893 2.260406 167.422690 16.538830 -105.947155 -3.699983 -0.000009 0.001792 159.781689 20.960500 -91.999486 -2.850072 0.000126 0.000011 157.041280 15.625202 -68.084555 -2.772162 -0.000012 -0.000014 -0.000000 -0.000002 0.000002 -9.532419 -0.000085 0.000552 171.582412 13.929083 -118.969943 -3.699924 -0.000062 0.004292 169.192037 16.525103 -113.201650 -2.949978 0.000003 -0.001484 168.247258 12.422459 -93.140278 -2.946610 0.000000 -0.000153 0.000001 -0.000001 0.000000 -9.103498 -0.043102 -1.864550 173.126594 13.112199 -124.451210 -3.379226 -0.000051 -0.000471 169.930694 11.858713 -99.542467 -2.889714 0.000003 0.000936 168.157509 7.247927 -63.285248 -2.638808 -0.000005 0.000946 0.000001 0.000003 -0.000001 -8.076488 -0.486708 -3.805699 176.093683 9.918659 -135.416642 -3.600008 -0.000005 -0.003196 171.186179 5.622983 -60.321383 -2.099989 0.000049 -0.005186 171.237091 2.698912 -31.093381 -2.115766 -0.000045 -0.003677 0.000004 -0.000000 -0.000007 4.570446 11.014691 -2.160851 -0.000018 0.000010 -0.000021 10.592495 -0.524530 -2.232385 56.446773 -57.756373 32.979647 27.841801 -0.000022 -0.000145 10.472191 -100.146556 12.497989 28.328835 -0.000015 0.000030 0.000020 -0.000088 -0.000001 2.466189 -1.576060 2.681907 105.946213 189.506508 -162.278519 3.217877 -1.871928 1.916546 258.893020 22.329842 37.814478 2.656097 -1.528732 1.514619 232.779213 28.694748 58.063711 2.020891 -1.154097 1.115136 -0.000004 0.000005 0.000002 9.109051 -0.517899 2.259989 9.443521 -162.199330 55.592829 3.699808 -0.000020 -0.000227 2.120458 -160.277561 12.225707 2.849947 -0.000012 0.000423 -3.021499 -164.883130 -22.492868 2.774881 -0.000034 -0.000019 0.000002 0.000001 -0.000001 9.533114 0.000186 0.000164 190.559983 -18.260559 -120.215564 3.699721 0.000115 -0.000119 7.821250 -162.771427 48.566688 2.949728 0.000104 0.000035 5.318121 -168.696028 50.289829 2.952859 -0.000031 0.000060 0.000000 0.000001 -0.000000 9.104258 -0.042808 -1.864946 195.032814 -15.959065 -93.465531 3.149660 0.000353 0.000174 192.821991 -12.137461 273.166613 2.949758 0.000438 0.000150 189.952642 -5.195358 -415.049859 2.644312 0.000013 0.000064 0.000004 0.000002 -0.000001 8.077552 -0.486576 -3.806102 201.810548 -14.293550 293.366105 3.599777 0.000442 0.014869 197.811554 -7.593274 312.843674 2.099965 0.000418 0.007829 194.698026 -1.014059 -370.675623 2.125509 -0.000014 0.007513 -0.000002 0.000003 0.000001 -8.207786 -6.751667 -1.599560 -0.077001 -0.000003 0.000080 -0.000002 -44.370110 0.345938 0.153719 -0.000000 -0.000000 0.000000 -44.423679 -3.043532 -0.076700 0.000000 -0.000002 -0.000006 -8.728667 10.710559 -0.000009 -0.000000 -0.000000 -0.000001 -0.000679 9.278123 0.000000 -0.000000 -0.000000 8.207792 -6.751710 -1.599556 -0.074518 -0.000003 0.000081 -0.000002 -44.370014 0.346960 0.148822 0.000002 0.000000 -0.000001 -44.423664 -3.044403 -0.074314 0.000000 -0.000002 -0.000004 -8.728671 10.710558 0.000007 -0.000000 -0.000000 0.000000 -0.000680 9.278137 -0.000000 0.000000 -0.000001 
